<?xml version="1.0" standalone="no"?>
<!DOCTYPE svg PUBLIC "-//W3C//DTD SVG 20010904//EN"
 "http://www.w3.org/TR/2001/REC-SVG-20010904/DTD/svg10.dtd">
<svg version="1.0" xmlns="http://www.w3.org/2000/svg"
 width="800.000000pt" height="800.000000pt" viewBox="0 0 800.000000 800.000000"
 preserveAspectRatio="xMidYMid meet">
<metadata>
Created by potrace 1.11, written by Peter Selinger 2001-2013
</metadata>
<g transform="translate(0.000000,800.000000) scale(0.100000,-0.100000)"
fill="#000000" stroke="none">
<path d="M80 7980 c0 -5 5 -10 10 -10 6 0 10 5 10 10 0 6 -4 10 -10 10 -5 0
-10 -4 -10 -10z"/>
<path d="M5266 7973 c-11 -11 -6 -23 9 -23 8 0 15 4 15 9 0 13 -16 22 -24 14z"/>
<path d="M5880 7920 c0 -5 5 -10 10 -10 6 0 10 5 10 10 0 6 -4 10 -10 10 -5 0
-10 -4 -10 -10z"/>
<path d="M6260 7920 c19 -13 30 -13 30 0 0 6 -10 10 -22 10 -19 0 -20 -2 -8
-10z"/>
<path d="M7380 7640 c0 -5 7 -10 15 -10 8 0 15 5 15 10 0 6 -7 10 -15 10 -8 0
-15 -4 -15 -10z"/>
<path d="M6445 7459 c-4 -6 -1 -15 6 -20 21 -13 31 -11 27 8 -4 20 -24 28 -33
12z"/>
<path d="M1070 7272 c0 -12 19 -26 26 -19 2 2 -2 10 -11 17 -9 8 -15 8 -15 2z"/>
<path d="M5177 7194 c-8 -8 1 -24 14 -24 5 0 9 7 9 15 0 15 -12 20 -23 9z"/>
<path d="M2720 7170 c0 -5 5 -10 10 -10 6 0 10 5 10 10 0 6 -4 10 -10 10 -5 0
-10 -4 -10 -10z"/>
<path d="M7425 7170 c-3 -5 -2 -10 4 -10 5 0 13 5 16 10 3 6 2 10 -4 10 -5 0
-13 -4 -16 -10z"/>
<path d="M5947 7143 c-12 -12 -7 -22 8 -17 8 4 15 10 15 15 0 11 -14 12 -23 2z"/>
<path d="M7850 7120 c-8 -5 -12 -12 -9 -15 4 -3 12 1 19 10 14 17 11 19 -10 5z"/>
<path d="M2310 7055 c0 -9 9 -15 25 -15 16 0 25 6 25 15 0 9 -9 15 -25 15 -16
0 -25 -6 -25 -15z"/>
<path d="M7106 6841 c-3 -5 1 -11 9 -15 15 -6 29 7 18 18 -9 9 -21 8 -27 -3z"/>
<path d="M3239 6701 c-12 -16 -32 -20 -124 -25 -60 -4 -135 -10 -165 -15 -58
-9 -105 -9 -316 4 -111 7 -136 5 -163 -8 -18 -9 -78 -23 -134 -32 -56 -8 -140
-23 -187 -32 -101 -20 -248 -22 -344 -5 -69 12 -136 8 -136 -9 0 -5 9 -9 20
-9 11 0 20 -4 20 -10 0 -10 -56 -16 -112 -12 -17 1 -28 -3 -28 -10 -1 -9 -5
-8 -13 3 -16 21 -49 31 -72 22 -18 -6 -18 -7 1 -13 10 -4 19 -13 19 -21 0 -8
8 -13 20 -10 11 1 -4 -13 -34 -33 -29 -20 -62 -36 -73 -36 -25 0 -57 -38 -58
-68 0 -15 -7 -26 -19 -29 -24 -6 -27 -26 -47 -263 -6 -72 -12 -116 -20 -144
-4 -10 -7 -49 -9 -85 -6 -159 -18 -316 -24 -318 -7 -3 -6 -130 3 -344 6 -129
5 -169 -9 -222 -9 -37 -15 -74 -13 -84 1 -10 -1 -23 -5 -30 -4 -6 -8 -37 -8
-69 -2 -48 2 -60 20 -76 16 -12 22 -27 21 -50 -3 -53 -1 -61 16 -54 18 7 67
-23 61 -38 -3 -6 9 -12 26 -13 17 -1 34 -9 39 -16 10 -19 45 -32 153 -57 49
-12 97 -26 106 -31 19 -10 109 -24 234 -36 44 -4 222 -7 395 -5 635 7 701 6
785 -12 116 -23 143 -25 324 -27 148 -1 166 1 180 18 9 10 33 27 54 37 21 11
48 34 60 50 20 29 22 42 21 216 0 102 -4 349 -8 550 -5 201 -9 554 -11 785 -3
437 -9 505 -43 505 -10 0 -39 23 -65 51 -44 47 -50 51 -82 45 -31 -6 -39 -2
-75 34 -45 45 -64 50 -80 20 -14 -26 -34 -26 -27 0 3 11 1 18 -3 15 -5 -3 -11
-1 -15 5 -10 16 -42 11 -56 -9z m-196 -485 c5 -6 5 -74 1 -151 -4 -77 -8 -164
-8 -192 0 -29 -3 -53 -6 -53 -4 0 -5 -109 -4 -242 2 -134 5 -345 6 -470 2
-160 0 -230 -8 -238 -9 -9 -29 -9 -80 0 -79 14 -304 25 -714 36 -157 3 -290
11 -296 15 -6 5 -14 65 -17 141 -4 73 -12 171 -18 218 -13 96 -6 447 11 570 6
41 13 133 14 203 2 70 5 130 7 132 3 2 38 -3 79 -12 41 -8 102 -15 135 -15 81
0 421 40 464 53 61 20 133 25 281 21 89 -3 148 -9 153 -16z"/>
<path d="M2400 5913 c0 -7 -7 -10 -15 -7 -8 3 -17 0 -20 -8 -4 -9 -24 -13 -66
-13 -53 0 -62 -3 -76 -25 l-17 -25 -6 24 c-8 35 -28 37 -40 4 -6 -15 -14 -37
-19 -48 -27 -59 -48 -248 -43 -387 2 -36 9 -55 30 -80 16 -18 34 -49 42 -68
19 -49 49 -90 74 -101 11 -5 36 -18 55 -29 20 -13 38 -17 45 -12 31 23 89 10
133 -31 19 -17 25 -18 38 -7 13 11 19 10 38 -7 23 -21 28 -21 120 13 9 3 20
17 23 30 3 13 10 24 14 24 17 0 32 62 27 108 -4 26 -9 119 -13 207 -6 154 -20
225 -43 225 -6 0 -13 11 -17 24 -3 14 -32 50 -64 80 -52 49 -63 56 -100 56
-34 0 -46 6 -71 32 -16 18 -29 27 -29 21z"/>
<path d="M1566 6682 c-3 -6 -1 -14 5 -17 15 -10 25 3 12 16 -7 7 -13 7 -17 1z"/>
<path d="M6800 6671 c0 -5 7 -14 15 -21 13 -10 15 -9 15 9 0 12 -6 21 -15 21
-8 0 -15 -4 -15 -9z"/>
<path d="M7055 6630 c4 -6 11 -8 16 -5 14 9 11 15 -7 15 -8 0 -12 -5 -9 -10z"/>
<path d="M1265 6040 c3 -5 8 -10 11 -10 2 0 4 5 4 10 0 6 -5 10 -11 10 -5 0
-7 -4 -4 -10z"/>
<path d="M6020 5870 c0 -5 9 -10 21 -10 11 0 17 5 14 10 -3 6 -13 10 -21 10
-8 0 -14 -4 -14 -10z"/>
<path d="M5798 5843 c7 -3 16 -2 19 1 4 3 -2 6 -13 5 -11 0 -14 -3 -6 -6z"/>
<path d="M6313 5834 c-8 -21 26 -49 41 -34 7 7 3 17 -12 30 -20 19 -23 19 -29
4z"/>
<path d="M1195 4920 c3 -5 8 -10 11 -10 2 0 4 5 4 10 0 6 -5 10 -11 10 -5 0
-7 -4 -4 -10z"/>
<path d="M5975 4820 c-18 -19 -17 -20 3 -20 15 0 22 6 22 20 0 11 -2 20 -3 20
-2 0 -12 -9 -22 -20z"/>
<path d="M5780 4749 c0 -5 5 -7 10 -4 6 3 10 8 10 11 0 2 -4 4 -10 4 -5 0 -10
-5 -10 -11z"/>
<path d="M3548 4333 c7 -3 16 -2 19 1 4 3 -2 6 -13 5 -11 0 -14 -3 -6 -6z"/>
<path d="M4750 4320 c0 -5 5 -10 10 -10 6 0 10 5 10 10 0 6 -4 10 -10 10 -5 0
-10 -4 -10 -10z"/>
<path d="M5475 4050 c4 -6 11 -8 16 -5 14 9 11 15 -7 15 -8 0 -12 -5 -9 -10z"/>
<path d="M5390 4010 c0 -5 7 -10 16 -10 8 0 12 5 9 10 -3 6 -10 10 -16 10 -5
0 -9 -4 -9 -10z"/>
<path d="M6449 3933 c-1 -5 -1 -16 0 -25 2 -16 -30 -17 -451 -14 -449 4 -644
9 -746 21 -29 4 -58 2 -65 -3 -7 -5 -29 -12 -50 -16 -23 -4 -37 -12 -34 -19 2
-7 0 -20 -5 -30 -8 -16 -11 -16 -40 -1 -29 15 -34 15 -60 -1 -29 -17 -30 -16
-55 6 -19 18 -27 20 -30 11 -4 -10 -9 -8 -19 7 -8 11 -21 18 -28 15 -8 -3 -23
4 -34 16 l-20 22 -14 -28 c-13 -28 -34 -42 -95 -65 -23 -8 -33 -18 -34 -33 0
-21 0 -21 -16 2 -31 45 -47 25 -59 -75 -3 -26 -8 -51 -10 -55 -3 -4 -5 -73 -5
-153 1 -100 -3 -145 -10 -145 -8 0 -7 -5 1 -15 8 -9 8 -15 2 -15 -7 0 -9 -13
-5 -35 3 -21 1 -41 -7 -50 -9 -10 -10 -31 -6 -65 4 -28 3 -50 -2 -50 -5 0 -9
-14 -10 -31 0 -17 -4 -45 -8 -62 -6 -28 -8 -30 -15 -12 -6 16 -8 17 -8 3 -1
-9 3 -20 9 -23 6 -4 8 -66 5 -163 -3 -86 -7 -243 -10 -349 -4 -106 -10 -205
-14 -220 -20 -69 -22 -576 -3 -595 7 -7 12 -20 12 -29 0 -9 6 -22 14 -28 7 -6
16 -25 20 -42 5 -25 10 -30 25 -26 14 3 24 -4 37 -29 10 -19 26 -34 36 -34 9
0 21 -6 25 -14 4 -7 22 -16 38 -19 92 -17 130 -29 145 -42 19 -17 76 -20 85
-5 4 6 14 10 23 9 10 -1 22 0 27 1 6 1 24 4 40 5 61 5 121 16 140 24 23 10
172 36 290 52 77 10 294 11 420 2 114 -8 511 -10 624 -3 98 6 116 9 130 27 19
24 75 54 93 51 8 -2 14 9 16 26 2 16 17 42 33 58 33 34 33 32 17 61 -7 13 -13
76 -15 152 -1 72 -7 182 -13 245 -5 63 -11 148 -12 187 -2 40 -6 73 -10 73 -5
0 -8 -5 -8 -12 0 -6 -2 -9 -5 -7 -2 3 0 21 7 40 12 38 19 557 7 564 -6 4 -11
103 -12 230 0 46 8 97 28 175 7 30 18 93 24 140 14 108 16 118 24 126 15 15 7
52 -13 57 -12 3 -20 14 -20 25 0 11 -3 27 -6 36 -4 11 -1 16 10 16 28 0 17 19
-22 39 -21 11 -44 27 -51 35 -7 9 -17 13 -23 10 -5 -3 -21 6 -35 20 -31 31
-53 33 -53 6 0 -20 -1 -20 -26 -4 -14 9 -23 23 -20 29 3 8 -4 12 -17 12 -12
-1 -34 2 -49 6 -16 4 -29 4 -29 0z m-233 -432 c-28 -146 -35 -342 -17 -519 9
-91 9 -137 2 -145 -16 -21 -14 -688 4 -848 4 -38 2 -49 -18 -67 -23 -22 -25
-22 -153 -10 -71 6 -183 11 -249 10 -292 -4 -555 -14 -615 -22 -36 -5 -71 -10
-79 -10 -11 0 -12 21 -6 118 4 64 11 120 16 123 5 3 14 70 19 150 18 280 28
444 28 474 0 17 5 104 10 195 6 91 13 257 16 370 3 113 5 206 5 208 1 2 79 -1
174 -5 212 -10 700 -7 782 5 76 10 87 7 81 -27z"/>
<path d="M5568 3165 c-25 -25 -48 -51 -51 -58 -3 -9 -9 -9 -25 0 -18 11 -23
10 -30 -4 -6 -10 -24 -17 -48 -17 -33 -2 -40 -6 -52 -36 -22 -54 -42 -234 -42
-386 0 -163 14 -220 75 -310 22 -32 24 -33 30 -13 l7 21 15 -21 c8 -12 22 -21
32 -21 10 0 26 -9 37 -21 11 -12 26 -18 37 -15 11 2 27 1 36 -3 67 -34 71 -35
84 -18 7 9 31 17 59 19 25 2 53 9 61 16 7 6 17 9 20 5 7 -7 46 37 47 52 0 6 9
29 20 50 17 33 20 52 16 105 -10 119 -9 234 4 325 11 79 10 95 -4 129 -9 21
-16 48 -16 60 0 27 -44 78 -85 99 -17 8 -39 24 -49 36 -11 12 -31 21 -48 21
-16 0 -36 7 -44 15 -23 23 -35 19 -86 -30z"/>
<path d="M3535 3881 c-6 -5 -71 -14 -145 -21 -348 -31 -538 -57 -680 -92 -186
-47 -275 -45 -716 18 -136 19 -213 19 -220 -1 -4 -8 -14 -15 -23 -15 -21 0
-71 23 -71 32 0 4 -7 5 -15 2 -9 -4 -15 0 -15 10 0 9 -6 16 -12 16 -7 0 -23 3
-36 6 -16 5 -22 3 -20 -6 2 -7 -7 -16 -19 -19 -13 -3 -31 -13 -41 -22 -25 -22
-112 -32 -112 -13 0 19 -19 18 -26 -1 -4 -8 -12 -15 -20 -15 -8 0 -11 -6 -8
-15 4 -8 2 -15 -4 -15 -15 0 -22 -25 -27 -103 -12 -164 -16 -215 -26 -277 -14
-93 -30 -600 -18 -600 7 0 2 -87 -6 -100 -3 -6 -2 -10 3 -10 6 0 7 -14 1 -37
-5 -23 -4 -39 1 -41 6 -2 6 -11 0 -23 -6 -10 -10 -71 -9 -136 0 -65 -2 -165
-5 -222 -4 -69 -2 -109 5 -117 7 -8 8 -21 3 -31 -4 -10 -8 -67 -9 -128 0 -102
1 -112 22 -131 13 -12 23 -26 23 -32 0 -24 70 -80 120 -97 29 -10 64 -24 79
-31 14 -8 36 -14 49 -14 30 0 112 -19 134 -31 10 -5 35 -9 55 -9 21 -1 63 -7
93 -14 41 -10 103 -12 240 -7 201 7 377 6 595 -3 120 -5 265 4 340 21 11 2
152 6 313 9 168 2 301 8 312 14 10 5 38 10 63 10 60 0 122 52 138 116 6 24 10
46 9 50 -1 4 3 10 8 13 11 6 12 54 13 380 0 96 2 177 4 180 4 8 19 369 16 401
-1 14 -2 221 -2 460 1 452 1 458 -41 504 -10 11 -18 24 -18 28 0 18 -79 88
-99 88 -12 0 -21 6 -21 15 0 8 -4 15 -10 15 -5 0 -19 10 -30 23 -20 20 -22 21
-31 5 -11 -19 -39 -25 -39 -8 0 6 -8 10 -18 10 -10 0 -22 5 -28 10 -6 6 -14 6
-19 1z m-319 -801 c2 -207 -1 -415 -7 -480 -6 -63 -12 -154 -14 -202 -2 -48
-5 -91 -8 -95 -2 -4 -5 -62 -6 -128 -1 -66 -6 -123 -10 -127 -9 -10 -115 -24
-326 -43 -204 -19 -273 -19 -415 1 -96 14 -146 15 -290 7 -96 -5 -180 -7 -186
-6 -8 3 -11 74 -10 231 1 125 -3 362 -8 527 -6 226 -5 329 4 415 7 63 13 129
14 147 1 45 17 56 68 50 23 -2 108 -12 188 -21 80 -8 186 -20 235 -26 50 -6
104 -11 120 -11 55 1 150 13 161 22 6 5 47 16 90 24 43 8 104 22 134 30 70 20
231 53 249 52 11 -2 14 -65 17 -367z"/>
<path d="M2403 3082 c-25 -29 -40 -39 -47 -32 -15 15 -43 12 -50 -6 -5 -12
-14 -15 -39 -10 -26 5 -35 2 -45 -15 -16 -26 -35 -122 -34 -169 1 -19 -6 -57
-15 -85 -12 -35 -17 -87 -17 -170 -1 -66 -5 -125 -9 -132 -4 -6 -2 -24 4 -40
6 -15 14 -46 18 -68 5 -31 12 -41 28 -43 17 -3 21 -10 21 -32 -1 -33 26 -80
46 -80 7 0 19 -7 26 -15 6 -7 32 -17 56 -21 24 -3 47 -11 50 -16 3 -5 12 -4
20 3 8 7 14 7 14 1 0 -16 49 -20 145 -12 53 4 95 3 103 -3 8 -6 12 -6 12 2 0
6 8 11 18 11 9 0 35 17 57 38 l40 37 7 183 c4 101 4 200 0 220 -5 20 -10 87
-11 147 -2 84 -6 114 -18 128 -16 17 -36 48 -49 77 -25 52 -45 67 -104 80 -48
10 -64 18 -70 36 -7 19 -18 23 -65 26 -55 3 -56 2 -92 -40z"/>
<path d="M4575 3759 c-4 -6 -5 -12 -2 -15 2 -3 7 2 10 11 7 17 1 20 -8 4z"/>
<path d="M1301 3584 c0 -11 3 -14 6 -6 3 7 2 16 -1 19 -3 4 -6 -2 -5 -13z"/>
<path d="M3990 3051 c0 -12 39 -25 48 -16 7 7 -17 25 -35 25 -7 0 -13 -4 -13
-9z"/>
<path d="M4190 2475 c0 -8 4 -15 10 -15 5 0 7 7 4 15 -4 8 -8 15 -10 15 -2 0
-4 -7 -4 -15z"/>
<path d="M4225 2030 c-3 -5 -1 -10 4 -10 6 0 11 5 11 10 0 6 -2 10 -4 10 -3 0
-8 -4 -11 -10z"/>
<path d="M4285 1990 c-17 -18 -17 -20 -1 -26 20 -8 52 19 42 35 -10 16 -21 14
-41 -9z"/>
<path d="M7983 1958 c-18 -24 -24 -38 -16 -38 10 0 36 40 30 46 -2 3 -9 -1
-14 -8z"/>
<path d="M7145 1670 c4 -6 11 -8 16 -5 14 9 11 15 -7 15 -8 0 -12 -5 -9 -10z"/>
<path d="M7920 1669 c0 -5 5 -7 10 -4 6 3 10 8 10 11 0 2 -4 4 -10 4 -5 0 -10
-5 -10 -11z"/>
<path d="M3025 1250 c-3 -5 1 -13 10 -16 22 -9 29 1 11 15 -10 8 -16 9 -21 1z"/>
<path d="M5016 881 c-3 -5 1 -11 9 -15 15 -6 29 7 18 18 -9 9 -21 8 -27 -3z"/>
<path d="M397 775 c-3 -7 -3 -15 0 -18 7 -7 33 3 33 13 0 14 -28 19 -33 5z"/>
<path d="M4120 691 c0 -5 9 -16 20 -26 19 -18 20 -17 20 2 0 12 -8 23 -20 26
-11 3 -20 2 -20 -2z"/>
<path d="M6520 420 c0 -5 5 -10 11 -10 5 0 7 5 4 10 -3 6 -8 10 -11 10 -2 0
-4 -4 -4 -10z"/>
<path d="M750 250 c0 -5 7 -10 16 -10 8 0 12 5 9 10 -3 6 -10 10 -16 10 -5 0
-9 -4 -9 -10z"/>
<path d="M790 222 c0 -14 11 -21 26 -15 21 8 17 23 -6 23 -11 0 -20 -4 -20 -8z"/>
</g>
</svg>
